<svg width="127" height="30" viewBox="0 0 127 30" fill="none" xmlns="http://www.w3.org/2000/svg">
<path d="M20.816 20.972C20.816 26.012 17.108 29.576 10.736 29.576C4.4 29.576 0.656 26.048 0.656 21.008V20.54H5.912V21.152C5.912 23.528 7.748 25.148 10.736 25.148C13.724 25.148 15.56 23.528 15.56 21.152C15.56 19.064 14.228 17.624 11.564 17.084L8.108 16.364C3.5 15.428 0.656 12.872 0.656 8.228C0.656 3.8 3.896 0.0919988 10.196 0.0919988C16.496 0.0919988 19.772 3.836 19.772 8.192V8.588H14.48V8.192C14.48 6.068 12.968 4.556 10.196 4.556C7.388 4.556 5.912 6.068 5.912 8.192C5.912 10.316 7.172 11.36 9.908 11.936L13.328 12.656C18.08 13.628 20.816 16.4 20.816 20.972ZM24.0057 21.584V8.732H28.9737V21.512C28.9737 24.248 30.1257 25.544 32.2137 25.544C34.8057 25.544 36.6417 23.636 36.6417 20.144V8.732H41.6457V29.072H36.6417V25.616C35.8857 27.992 33.7977 29.576 30.8817 29.576C26.4537 29.576 24.0057 26.732 24.0057 21.584ZM50.3813 25.004V28.856H47.7173V25.004H50.3813ZM60.317 10.784V23.312C60.317 26.48 61.685 27.236 64.457 27.236H66.437V29.108C65.681 29.144 64.853 29.144 64.169 29.144C59.993 29.144 58.121 27.848 58.121 23.672V10.784H55.097V8.876H58.121V3.188H60.317V8.876H66.437V10.784H60.317ZM85.9214 19.532H71.2334C71.3414 24.608 73.2854 27.416 77.5334 27.416C80.7734 27.416 82.6454 25.832 83.2214 23.06H85.4894C84.7334 27.02 82.0334 29.324 77.4974 29.324C71.7734 29.324 69.0374 25.436 69.0374 18.884C69.0374 12.332 71.7734 8.408 77.4974 8.408C83.2214 8.408 85.9214 12.332 85.9214 18.884V19.532ZM77.4974 10.316C73.4294 10.316 71.4854 13.016 71.3054 17.696H83.6894C83.4734 13.016 81.5294 10.316 77.4974 10.316ZM89.4984 18.884C89.4984 12.296 92.2344 8.408 97.9584 8.408C102.674 8.408 105.554 10.928 106.058 15.248H103.79C103.394 12.152 101.414 10.316 97.9584 10.316C93.5664 10.316 91.6944 13.376 91.6944 18.884C91.6944 24.392 93.5664 27.416 97.9584 27.416C101.414 27.416 103.394 25.616 103.79 22.52H106.058C105.554 26.804 102.674 29.324 97.9584 29.324C92.2344 29.324 89.4984 25.472 89.4984 18.884ZM126.421 16.508V28.856H124.225V17.228C124.225 12.404 122.389 10.316 118.933 10.316C115.261 10.316 112.597 13.412 112.525 18.776V28.856H110.329V0.883999H112.525V12.764C113.533 10.208 115.765 8.408 119.365 8.408C123.937 8.408 126.421 11.432 126.421 16.508Z" fill="black"/>
</svg>
